<?xml version="1.0" standalone="no"?>
<!DOCTYPE svg PUBLIC "-//W3C//DTD SVG 20010904//EN"
 "http://www.w3.org/TR/2001/REC-SVG-20010904/DTD/svg10.dtd">
<svg version="1.0" xmlns="http://www.w3.org/2000/svg"
 width="768.000000pt" height="768.000000pt" viewBox="0 0 768.000000 768.000000"
 preserveAspectRatio="xMidYMid meet">
<metadata>
Created by potrace 1.11, written by Peter Selinger 2001-2013
</metadata>
<g transform="translate(0.000000,768.000000) scale(0.100000,-0.100000)"
fill="#000000" stroke="none">
<path d="M3455 7665 c-1086 -108 -2098 -695 -2736 -1587 -373 -521 -612 -1131
-696 -1773 -26 -201 -26 -742 0 -935 75 -555 243 -1036 522 -1500 388 -644
915 -1130 1590 -1468 403 -202 779 -317 1235 -379 195 -26 755 -26 950 0 533
72 995 231 1465 502 915 528 1586 1446 1819 2487 67 297 71 344 71 818 0 468
-3 501 -61 789 -145 711 -525 1412 -1048 1935 -631 630 -1470 1027 -2345 1111
-187 18 -583 18 -766 0z m770 -590 c671 -79 1304 -369 1820 -835 523 -471 905
-1174 1019 -1870 42 -258 54 -635 27 -879 -42 -398 -143 -745 -314 -1086 -328
-656 -951 -1253 -1618 -1551 -726 -325 -1611 -362 -2377 -99 -952 326 -1786
1190 -2066 2140 -213 724 -169 1542 119 2215 215 502 608 993 1080 1350 515
390 1039 581 1740 634 98 8 442 -4 570 -19z"/>
<path d="M2130 3865 l0 -2135 290 0 290 0 0 738 0 739 113 110 c334 326 589
565 597 557 7 -8 1295 -1841 1444 -2056 l61 -87 374 -1 c294 0 372 3 368 13
-4 10 -404 558 -1575 2152 -149 204 -272 373 -272 377 0 6 353 349 1140 1107
146 141 330 319 410 397 80 77 165 159 190 182 l45 41 -390 1 -389 0 -586
-582 c-322 -321 -796 -793 -1055 -1050 l-470 -468 -3 1050 -2 1050 -290 0
-290 0 0 -2135z"/>
</g>
</svg>
